
<svg xmlns="http://www.w3.org/2000/svg">
  <symbol id="cancel" viewBox="0 0 19 19" fill="currentColor">
    <path fill="currentColor" fill-rule="evenodd" d="M18.997 17.455l-1.542 1.543-7.957-7.956-7.956 7.956-1.543-1.543 7.956-7.956-7.956-7.955L1.542.001l7.956 7.956L17.455.001l1.542 1.543-7.956 7.955 7.956 7.956z"/>
  </symbol>
  <symbol id="eye" viewBox="0 0 461.312 461.312" fill="currentColor">
    <g>
      <g>
        <path d="M230.656,156.416c-40.96,0-74.24,33.28-74.24,74.24s33.28,74.24,74.24,74.24s74.24-33.28,74.24-74.24
          S271.616,156.416,230.656,156.416z M225.024,208.64c-9.216,0-16.896,7.68-16.896,16.896h-24.576
          c0.512-23.04,18.944-41.472,41.472-41.472V208.64z"/>
      </g>
    </g>
    <g>
      <g>
        <path d="M455.936,215.296c-25.088-31.232-114.688-133.12-225.28-133.12S30.464,184.064,5.376,215.296
          c-7.168,8.704-7.168,21.504,0,30.72c25.088,31.232,114.688,133.12,225.28,133.12s200.192-101.888,225.28-133.12
          C463.104,237.312,463.104,224.512,455.936,215.296z M230.656,338.176c-59.392,0-107.52-48.128-107.52-107.52
          s48.128-107.52,107.52-107.52s107.52,48.128,107.52,107.52S290.048,338.176,230.656,338.176z"/>
      </g>
    </g>
  </symbol>
  <symbol id="eye-disabled" viewBox="0 0 469.44 469.44" fill="currentColor">
    <g>
      <g>
        <g>
          <path d="M231.147,160.373l67.2,67.2l0.32-3.52c0-35.307-28.693-64-64-64L231.147,160.373z"/>
          <path d="M234.667,117.387c58.88,0,106.667,47.787,106.667,106.667c0,13.76-2.773,26.88-7.573,38.933l62.4,62.4
            c32.213-26.88,57.6-61.653,73.28-101.333c-37.013-93.653-128-160-234.773-160c-29.867,0-58.453,5.333-85.013,14.933l46.08,45.973
            C207.787,120.267,220.907,117.387,234.667,117.387z"/>
          <path d="M21.333,59.253l48.64,48.64l9.707,9.707C44.48,145.12,16.64,181.707,0,224.053c36.907,93.653,128,160,234.667,160
            c33.067,0,64.64-6.4,93.547-18.027l9.067,9.067l62.187,62.293l27.2-27.093L48.533,32.053L21.333,59.253z M139.307,177.12
            l32.96,32.96c-0.96,4.587-1.6,9.173-1.6,13.973c0,35.307,28.693,64,64,64c4.8,0,9.387-0.64,13.867-1.6l32.96,32.96
            c-14.187,7.04-29.973,11.307-46.827,11.307C175.787,330.72,128,282.933,128,224.053C128,207.2,132.267,191.413,139.307,177.12z"
            />
        </g>
      </g>
    </g>
  </symbol>
  <symbol id="search" viewBox="0 0 512.005 512.005" fill="currentColor">
    <g>
      <g>
        <path d="M505.749,475.587l-145.6-145.6c28.203-34.837,45.184-79.104,45.184-127.317c0-111.744-90.923-202.667-202.667-202.667
          S0,90.925,0,202.669s90.923,202.667,202.667,202.667c48.213,0,92.48-16.981,127.317-45.184l145.6,145.6
          c4.16,4.16,9.621,6.251,15.083,6.251s10.923-2.091,15.083-6.251C514.091,497.411,514.091,483.928,505.749,475.587z
          M202.667,362.669c-88.235,0-160-71.765-160-160s71.765-160,160-160s160,71.765,160,160S290.901,362.669,202.667,362.669z"/>
      </g>
    </g>
  </symbol>
  <symbol id="board" viewBox="0 0 491.52 491.52" fill="currentColor">
    <g>
      <g>
        <path d="M445.44,33.792H261.12V15.36c0-8.704-6.656-15.36-15.36-15.36S230.4,6.656,230.4,15.36v18.432H46.08
          c-8.704,0-15.36,6.656-15.36,15.36v257.536H460.8V49.152C460.8,40.448,454.144,33.792,445.44,33.792z"/>
      </g>
    </g>
    <g>
      <g>
        <path d="M476.16,332.288H15.36c-8.192,0-15.36,7.168-15.36,15.36c0,8.704,6.656,15.36,15.36,15.36h199.168l-90.624,95.744
          c-5.632,6.144-5.632,15.872,0.512,21.504c6.144,5.632,15.872,5.632,21.504-0.512l84.48-89.088v85.504
          c0,8.704,6.656,15.36,15.36,15.36s15.36-6.656,15.36-15.36v-85.504l84.48,89.088c5.632,6.144,15.36,6.656,21.504,0.512
          c6.144-5.632,6.656-15.36,0.512-21.504l-90.624-95.744H476.16c8.704,0,15.36-6.656,15.36-15.36
          C491.52,338.944,484.864,332.288,476.16,332.288z"/>
      </g>
    </g>
  </symbol>
  <symbol id="settings" viewBox="0 0 512 512" fill="currentColor">
    <g>
      <g>
        <path d="M496.659,312.107l-47.061-36.8c0.597-5.675,1.109-12.309,1.109-19.328c0-7.019-0.491-13.653-1.109-19.328l47.104-36.821
          c8.747-6.912,11.136-19.179,5.568-29.397L453.331,85.76c-5.227-9.557-16.683-14.464-28.309-10.176l-55.531,22.293
          c-10.645-7.68-21.803-14.165-33.344-19.349l-8.448-58.901C326.312,8.448,316.584,0,305.086,0h-98.133
          c-11.499,0-21.205,8.448-22.571,19.456l-8.469,59.115c-11.179,5.035-22.165,11.435-33.28,19.349l-55.68-22.357
          C76.52,71.531,64.04,76.053,58.856,85.568L9.854,170.347c-5.781,9.771-3.392,22.464,5.547,29.547l47.061,36.8
          c-0.747,7.189-1.109,13.44-1.109,19.307s0.363,12.117,1.109,19.328l-47.104,36.821c-8.747,6.933-11.115,19.2-5.547,29.397
          l48.939,84.672c5.227,9.536,16.576,14.485,28.309,10.176l55.531-22.293c10.624,7.659,21.781,14.144,33.323,19.349l8.448,58.88
          C185.747,503.552,195.454,512,206.974,512h98.133c11.499,0,21.227-8.448,22.592-19.456l8.469-59.093
          c11.179-5.056,22.144-11.435,33.28-19.371l55.68,22.357c2.688,1.045,5.483,1.579,8.363,1.579c8.277,0,15.893-4.523,19.733-11.563
          l49.152-85.12C507.838,331.349,505.448,319.083,496.659,312.107z M256.019,341.333c-47.061,0-85.333-38.272-85.333-85.333
          s38.272-85.333,85.333-85.333s85.333,38.272,85.333,85.333S303.08,341.333,256.019,341.333z"/>
      </g>
    </g>
  </symbol>
  <symbol id="add" viewBox="0 0 512 512" fill="currentColor">
    <g>
      <g>
        <path d="M256,0C114.833,0,0,114.833,0,256s114.833,256,256,256s256-114.853,256-256S397.167,0,256,0z M256,472.341
          c-119.275,0-216.341-97.046-216.341-216.341S136.725,39.659,256,39.659S472.341,136.705,472.341,256S375.295,472.341,256,472.341z
          "/>
      </g>
    </g>
    <g>
      <g>
        <path d="M355.148,234.386H275.83v-79.318c0-10.946-8.864-19.83-19.83-19.83s-19.83,8.884-19.83,19.83v79.318h-79.318
          c-10.966,0-19.83,8.884-19.83,19.83s8.864,19.83,19.83,19.83h79.318v79.318c0,10.946,8.864,19.83,19.83,19.83
          s19.83-8.884,19.83-19.83v-79.318h79.318c10.966,0,19.83-8.884,19.83-19.83S366.114,234.386,355.148,234.386z"/>
      </g>
    </g>
  </symbol>
  <symbol id="todo" viewBox="0 0 512 512" fill="currentColor">
    <path d="m304.038 103.717v-102.705h-218.22c-11.733 0-21.245 9.512-21.245 21.245v469.51c0 11.733 9.512 21.245 21.245 21.245h339.917c11.733 0 21.245-9.512 21.245-21.245v-348.344h-103.236c-21.893 0-39.706-17.812-39.706-39.706zm-85.793 298.837-45.198 45.198c-2.929 2.929-6.768 4.394-10.606 4.394s-7.678-1.464-10.606-4.393l-18.764-18.763c-5.858-5.858-5.858-15.355 0-21.213 5.857-5.858 15.355-5.858 21.213 0l8.157 8.157 34.592-34.592c5.857-5.858 15.355-5.858 21.213 0 5.858 5.857 5.858 15.354-.001 21.212zm0-100-45.198 45.198c-2.929 2.929-6.768 4.394-10.606 4.394s-7.678-1.464-10.606-4.393l-18.764-18.763c-5.858-5.858-5.858-15.355 0-21.213 5.857-5.858 15.355-5.858 21.213 0l8.157 8.157 34.592-34.592c5.857-5.858 15.355-5.858 21.213 0 5.858 5.857 5.858 15.354-.001 21.212zm0-107.637-45.198 45.198c-2.929 2.929-6.768 4.394-10.606 4.394s-7.678-1.464-10.606-4.394l-18.764-18.764c-5.858-5.858-5.858-15.355 0-21.213 5.857-5.858 15.355-5.858 21.213 0l8.157 8.157 34.592-34.591c5.857-5.858 15.355-5.858 21.213 0s5.858 15.355-.001 21.213zm149.631 234.63h-96c-8.284 0-15-6.716-15-15s6.716-15 15-15h96c8.284 0 15 6.716 15 15s-6.716 15-15 15zm-111-115c0-8.284 6.716-15 15-15h95.571c8.284 0 15 6.716 15 15s-6.716 15-15 15h-95.571c-8.284 0-15-6.716-15-15zm125.572-100c0 8.284-6.716 15-15 15h-95.571c-8.284 0-15-6.716-15-15s6.716-15 15-15h95.571c8.284 0 15 6.716 15 15z"/>
    <path d="m334.038 103.717c0 5.352 4.354 9.706 9.706 9.706h104.694l-114.4-113.423z"/>
  </symbol>
  <symbol id="menu" viewBox="0 -53 384 384" fill="currentColor">
    <path d="m368 154.667969h-352c-8.832031 0-16-7.167969-16-16s7.167969-16 16-16h352c8.832031 0 16 7.167969 16 16s-7.167969 16-16 16zm0 0"/>
    <path d="m368 32h-352c-8.832031 0-16-7.167969-16-16s7.167969-16 16-16h352c8.832031 0 16 7.167969 16 16s-7.167969 16-16 16zm0 0"/>
    <path d="m368 277.332031h-352c-8.832031 0-16-7.167969-16-16s7.167969-16 16-16h352c8.832031 0 16 7.167969 16 16s-7.167969 16-16 16zm0 0"/>
  </symbol>
</svg>
