
<svg xmlns="http://www.w3.org/2000/svg">
  <symbol id="cancel" viewBox="0 0 19 19" fill="currentColor">
    <path fill="currentColor" fill-rule="evenodd" d="M18.997 17.455l-1.542 1.543-7.957-7.956-7.956 7.956-1.543-1.543 7.956-7.956-7.956-7.955L1.542.001l7.956 7.956L17.455.001l1.542 1.543-7.956 7.955 7.956 7.956z"/>
  </symbol>
  <symbol id="eye" viewBox="0 0 461.312 461.312" fill="currentColor">
    <g>
      <g>
        <path d="M230.656,156.416c-40.96,0-74.24,33.28-74.24,74.24s33.28,74.24,74.24,74.24s74.24-33.28,74.24-74.24
          S271.616,156.416,230.656,156.416z M225.024,208.64c-9.216,0-16.896,7.68-16.896,16.896h-24.576
          c0.512-23.04,18.944-41.472,41.472-41.472V208.64z"/>
      </g>
    </g>
    <g>
      <g>
        <path d="M455.936,215.296c-25.088-31.232-114.688-133.12-225.28-133.12S30.464,184.064,5.376,215.296
          c-7.168,8.704-7.168,21.504,0,30.72c25.088,31.232,114.688,133.12,225.28,133.12s200.192-101.888,225.28-133.12
          C463.104,237.312,463.104,224.512,455.936,215.296z M230.656,338.176c-59.392,0-107.52-48.128-107.52-107.52
          s48.128-107.52,107.52-107.52s107.52,48.128,107.52,107.52S290.048,338.176,230.656,338.176z"/>
      </g>
    </g>
  </symbol>
  <symbol id="eye-disabled" viewBox="0 0 469.44 469.44" fill="currentColor">
    <g>
      <g>
        <g>
          <path d="M231.147,160.373l67.2,67.2l0.32-3.52c0-35.307-28.693-64-64-64L231.147,160.373z"/>
          <path d="M234.667,117.387c58.88,0,106.667,47.787,106.667,106.667c0,13.76-2.773,26.88-7.573,38.933l62.4,62.4
            c32.213-26.88,57.6-61.653,73.28-101.333c-37.013-93.653-128-160-234.773-160c-29.867,0-58.453,5.333-85.013,14.933l46.08,45.973
            C207.787,120.267,220.907,117.387,234.667,117.387z"/>
          <path d="M21.333,59.253l48.64,48.64l9.707,9.707C44.48,145.12,16.64,181.707,0,224.053c36.907,93.653,128,160,234.667,160
            c33.067,0,64.64-6.4,93.547-18.027l9.067,9.067l62.187,62.293l27.2-27.093L48.533,32.053L21.333,59.253z M139.307,177.12
            l32.96,32.96c-0.96,4.587-1.6,9.173-1.6,13.973c0,35.307,28.693,64,64,64c4.8,0,9.387-0.64,13.867-1.6l32.96,32.96
            c-14.187,7.04-29.973,11.307-46.827,11.307C175.787,330.72,128,282.933,128,224.053C128,207.2,132.267,191.413,139.307,177.12z"
            />
        </g>
      </g>
    </g>
  </symbol>
  <symbol id="search" viewBox="0 0 118.783 118.783" fill="currentColor">
    <g>
      <path d="M115.97,101.597L88.661,74.286c4.64-7.387,7.333-16.118,7.333-25.488c0-26.509-21.49-47.996-47.998-47.996
        S0,22.289,0,48.798c0,26.51,21.487,47.995,47.996,47.995c10.197,0,19.642-3.188,27.414-8.605l26.984,26.986
        c1.875,1.873,4.333,2.806,6.788,2.806c2.458,0,4.913-0.933,6.791-2.806C119.72,111.423,119.72,105.347,115.97,101.597z
        M47.996,81.243c-17.917,0-32.443-14.525-32.443-32.443s14.526-32.444,32.443-32.444c17.918,0,32.443,14.526,32.443,32.444
        S65.914,81.243,47.996,81.243z"/>
    </g>
  </symbol>
</svg>
