
<svg xmlns="http://www.w3.org/2000/svg">
  <symbol id="cancel" viewBox="0 0 19 19" fill="currentColor">
    <path fill="currentColor" fill-rule="evenodd" d="M18.997 17.455l-1.542 1.543-7.957-7.956-7.956 7.956-1.543-1.543 7.956-7.956-7.956-7.955L1.542.001l7.956 7.956L17.455.001l1.542 1.543-7.956 7.955 7.956 7.956z"/>
  </symbol>
  <symbol id="eye" viewBox="0 0 461.312 461.312" fill="currentColor">
    <g>
      <g>
        <path d="M230.656,156.416c-40.96,0-74.24,33.28-74.24,74.24s33.28,74.24,74.24,74.24s74.24-33.28,74.24-74.24
          S271.616,156.416,230.656,156.416z M225.024,208.64c-9.216,0-16.896,7.68-16.896,16.896h-24.576
          c0.512-23.04,18.944-41.472,41.472-41.472V208.64z"/>
      </g>
    </g>
    <g>
      <g>
        <path d="M455.936,215.296c-25.088-31.232-114.688-133.12-225.28-133.12S30.464,184.064,5.376,215.296
          c-7.168,8.704-7.168,21.504,0,30.72c25.088,31.232,114.688,133.12,225.28,133.12s200.192-101.888,225.28-133.12
          C463.104,237.312,463.104,224.512,455.936,215.296z M230.656,338.176c-59.392,0-107.52-48.128-107.52-107.52
          s48.128-107.52,107.52-107.52s107.52,48.128,107.52,107.52S290.048,338.176,230.656,338.176z"/>
      </g>
    </g>
  </symbol>
  <symbol id="eye-disabled" viewBox="0 0 469.44 469.44" fill="currentColor">
    <g>
      <g>
        <g>
          <path d="M231.147,160.373l67.2,67.2l0.32-3.52c0-35.307-28.693-64-64-64L231.147,160.373z"/>
          <path d="M234.667,117.387c58.88,0,106.667,47.787,106.667,106.667c0,13.76-2.773,26.88-7.573,38.933l62.4,62.4
            c32.213-26.88,57.6-61.653,73.28-101.333c-37.013-93.653-128-160-234.773-160c-29.867,0-58.453,5.333-85.013,14.933l46.08,45.973
            C207.787,120.267,220.907,117.387,234.667,117.387z"/>
          <path d="M21.333,59.253l48.64,48.64l9.707,9.707C44.48,145.12,16.64,181.707,0,224.053c36.907,93.653,128,160,234.667,160
            c33.067,0,64.64-6.4,93.547-18.027l9.067,9.067l62.187,62.293l27.2-27.093L48.533,32.053L21.333,59.253z M139.307,177.12
            l32.96,32.96c-0.96,4.587-1.6,9.173-1.6,13.973c0,35.307,28.693,64,64,64c4.8,0,9.387-0.64,13.867-1.6l32.96,32.96
            c-14.187,7.04-29.973,11.307-46.827,11.307C175.787,330.72,128,282.933,128,224.053C128,207.2,132.267,191.413,139.307,177.12z"
            />
        </g>
      </g>
    </g>
  </symbol>
  <symbol id="search" viewBox="0 0 512.005 512.005" fill="currentColor">
    <g>
      <g>
        <path d="M505.749,475.587l-145.6-145.6c28.203-34.837,45.184-79.104,45.184-127.317c0-111.744-90.923-202.667-202.667-202.667
          S0,90.925,0,202.669s90.923,202.667,202.667,202.667c48.213,0,92.48-16.981,127.317-45.184l145.6,145.6
          c4.16,4.16,9.621,6.251,15.083,6.251s10.923-2.091,15.083-6.251C514.091,497.411,514.091,483.928,505.749,475.587z
          M202.667,362.669c-88.235,0-160-71.765-160-160s71.765-160,160-160s160,71.765,160,160S290.901,362.669,202.667,362.669z"/>
      </g>
    </g>
  </symbol>
  <symbol id="board" viewBox="0 0 491.52 491.52" fill="currentColor">
    <g>
      <g>
        <path d="M445.44,33.792H261.12V15.36c0-8.704-6.656-15.36-15.36-15.36S230.4,6.656,230.4,15.36v18.432H46.08
          c-8.704,0-15.36,6.656-15.36,15.36v257.536H460.8V49.152C460.8,40.448,454.144,33.792,445.44,33.792z"/>
      </g>
    </g>
    <g>
      <g>
        <path d="M476.16,332.288H15.36c-8.192,0-15.36,7.168-15.36,15.36c0,8.704,6.656,15.36,15.36,15.36h199.168l-90.624,95.744
          c-5.632,6.144-5.632,15.872,0.512,21.504c6.144,5.632,15.872,5.632,21.504-0.512l84.48-89.088v85.504
          c0,8.704,6.656,15.36,15.36,15.36s15.36-6.656,15.36-15.36v-85.504l84.48,89.088c5.632,6.144,15.36,6.656,21.504,0.512
          c6.144-5.632,6.656-15.36,0.512-21.504l-90.624-95.744H476.16c8.704,0,15.36-6.656,15.36-15.36
          C491.52,338.944,484.864,332.288,476.16,332.288z"/>
      </g>
    </g>
  </symbol>
  <symbol id="settings" viewBox="0 0 512 512" fill="currentColor">
    <g>
      <g>
        <path d="M496.659,312.107l-47.061-36.8c0.597-5.675,1.109-12.309,1.109-19.328c0-7.019-0.491-13.653-1.109-19.328l47.104-36.821
          c8.747-6.912,11.136-19.179,5.568-29.397L453.331,85.76c-5.227-9.557-16.683-14.464-28.309-10.176l-55.531,22.293
          c-10.645-7.68-21.803-14.165-33.344-19.349l-8.448-58.901C326.312,8.448,316.584,0,305.086,0h-98.133
          c-11.499,0-21.205,8.448-22.571,19.456l-8.469,59.115c-11.179,5.035-22.165,11.435-33.28,19.349l-55.68-22.357
          C76.52,71.531,64.04,76.053,58.856,85.568L9.854,170.347c-5.781,9.771-3.392,22.464,5.547,29.547l47.061,36.8
          c-0.747,7.189-1.109,13.44-1.109,19.307s0.363,12.117,1.109,19.328l-47.104,36.821c-8.747,6.933-11.115,19.2-5.547,29.397
          l48.939,84.672c5.227,9.536,16.576,14.485,28.309,10.176l55.531-22.293c10.624,7.659,21.781,14.144,33.323,19.349l8.448,58.88
          C185.747,503.552,195.454,512,206.974,512h98.133c11.499,0,21.227-8.448,22.592-19.456l8.469-59.093
          c11.179-5.056,22.144-11.435,33.28-19.371l55.68,22.357c2.688,1.045,5.483,1.579,8.363,1.579c8.277,0,15.893-4.523,19.733-11.563
          l49.152-85.12C507.838,331.349,505.448,319.083,496.659,312.107z M256.019,341.333c-47.061,0-85.333-38.272-85.333-85.333
          s38.272-85.333,85.333-85.333s85.333,38.272,85.333,85.333S303.08,341.333,256.019,341.333z"/>
      </g>
    </g>
  </symbol>
  <symbol id="add" viewBox="0 0 512 512" fill="currentColor">
    <g>
      <g>
        <path d="M256,0C114.833,0,0,114.833,0,256s114.833,256,256,256s256-114.853,256-256S397.167,0,256,0z M256,472.341
          c-119.275,0-216.341-97.046-216.341-216.341S136.725,39.659,256,39.659S472.341,136.705,472.341,256S375.295,472.341,256,472.341z
          "/>
      </g>
    </g>
    <g>
      <g>
        <path d="M355.148,234.386H275.83v-79.318c0-10.946-8.864-19.83-19.83-19.83s-19.83,8.884-19.83,19.83v79.318h-79.318
          c-10.966,0-19.83,8.884-19.83,19.83s8.864,19.83,19.83,19.83h79.318v79.318c0,10.946,8.864,19.83,19.83,19.83
          s19.83-8.884,19.83-19.83v-79.318h79.318c10.966,0,19.83-8.884,19.83-19.83S366.114,234.386,355.148,234.386z"/>
      </g>
    </g>
  </symbol>
  <symbol id="todo" viewBox="0 0 512 512" fill="currentColor">
    <path d="m304.038 103.717v-102.705h-218.22c-11.733 0-21.245 9.512-21.245 21.245v469.51c0 11.733 9.512 21.245 21.245 21.245h339.917c11.733 0 21.245-9.512 21.245-21.245v-348.344h-103.236c-21.893 0-39.706-17.812-39.706-39.706zm-85.793 298.837-45.198 45.198c-2.929 2.929-6.768 4.394-10.606 4.394s-7.678-1.464-10.606-4.393l-18.764-18.763c-5.858-5.858-5.858-15.355 0-21.213 5.857-5.858 15.355-5.858 21.213 0l8.157 8.157 34.592-34.592c5.857-5.858 15.355-5.858 21.213 0 5.858 5.857 5.858 15.354-.001 21.212zm0-100-45.198 45.198c-2.929 2.929-6.768 4.394-10.606 4.394s-7.678-1.464-10.606-4.393l-18.764-18.763c-5.858-5.858-5.858-15.355 0-21.213 5.857-5.858 15.355-5.858 21.213 0l8.157 8.157 34.592-34.592c5.857-5.858 15.355-5.858 21.213 0 5.858 5.857 5.858 15.354-.001 21.212zm0-107.637-45.198 45.198c-2.929 2.929-6.768 4.394-10.606 4.394s-7.678-1.464-10.606-4.394l-18.764-18.764c-5.858-5.858-5.858-15.355 0-21.213 5.857-5.858 15.355-5.858 21.213 0l8.157 8.157 34.592-34.591c5.857-5.858 15.355-5.858 21.213 0s5.858 15.355-.001 21.213zm149.631 234.63h-96c-8.284 0-15-6.716-15-15s6.716-15 15-15h96c8.284 0 15 6.716 15 15s-6.716 15-15 15zm-111-115c0-8.284 6.716-15 15-15h95.571c8.284 0 15 6.716 15 15s-6.716 15-15 15h-95.571c-8.284 0-15-6.716-15-15zm125.572-100c0 8.284-6.716 15-15 15h-95.571c-8.284 0-15-6.716-15-15s6.716-15 15-15h95.571c8.284 0 15 6.716 15 15z"/>
    <path d="m334.038 103.717c0 5.352 4.354 9.706 9.706 9.706h104.694l-114.4-113.423z"/>
  </symbol>
  <symbol id="menu" viewBox="0 -53 384 384" fill="currentColor">
    <path d="m368 154.667969h-352c-8.832031 0-16-7.167969-16-16s7.167969-16 16-16h352c8.832031 0 16 7.167969 16 16s-7.167969 16-16 16zm0 0"/>
    <path d="m368 32h-352c-8.832031 0-16-7.167969-16-16s7.167969-16 16-16h352c8.832031 0 16 7.167969 16 16s-7.167969 16-16 16zm0 0"/>
    <path d="m368 277.332031h-352c-8.832031 0-16-7.167969-16-16s7.167969-16 16-16h352c8.832031 0 16 7.167969 16 16s-7.167969 16-16 16zm0 0"/>
  </symbol>
  <symbol id="clock" viewBox="0 0 512 512" fill="currentColor">
    <path d="m256 512c-141.164062 0-256-114.835938-256-256s114.835938-256 256-256 256 114.835938 256 256-114.835938 256-256 256zm0-480c-123.519531 0-224 100.480469-224 224s100.480469 224 224 224 224-100.480469 224-224-100.480469-224-224-224zm0 0"/>
    <path d="m368 394.667969c-4.097656 0-8.191406-1.558594-11.308594-4.695313l-112-112c-3.007812-3.007812-4.691406-7.082031-4.691406-11.304687v-149.335938c0-8.832031 7.167969-16 16-16s16 7.167969 16 16v142.699219l107.308594 107.308594c6.25 6.25 6.25 16.382812 0 22.632812-3.117188 3.136719-7.210938 4.695313-11.308594 4.695313zm0 0"/>
  </symbol>
  <symbol id="user" viewBox="-42 0 512 512.001" fill="currentColor">
    <path d="m210.351562 246.632812c33.882813 0 63.21875-12.152343 87.195313-36.128906 23.96875-23.972656 36.125-53.304687 36.125-87.191406 0-33.875-12.152344-63.210938-36.128906-87.191406-23.976563-23.96875-53.3125-36.121094-87.191407-36.121094-33.886718 0-63.21875 12.152344-87.191406 36.125s-36.128906 53.308594-36.128906 87.1875c0 33.886719 12.15625 63.222656 36.128906 87.195312 23.980469 23.96875 53.316406 36.125 87.191406 36.125zm-65.972656-189.292968c18.394532-18.394532 39.972656-27.335938 65.972656-27.335938 25.996094 0 47.578126 8.941406 65.976563 27.335938 18.394531 18.398437 27.339844 39.980468 27.339844 65.972656 0 26-8.945313 47.578125-27.339844 65.976562-18.398437 18.398438-39.980469 27.339844-65.976563 27.339844-25.992187 0-47.570312-8.945312-65.972656-27.339844-18.398437-18.394531-27.34375-39.976562-27.34375-65.976562 0-25.992188 8.945313-47.574219 27.34375-65.972656zm0 0"/>
    <path d="m426.128906 393.703125c-.691406-9.976563-2.089844-20.859375-4.148437-32.351563-2.078125-11.578124-4.753907-22.523437-7.957031-32.527343-3.3125-10.339844-7.808594-20.550781-13.375-30.335938-5.769532-10.15625-12.550782-19-20.160157-26.277343-7.957031-7.613282-17.699219-13.734376-28.964843-18.199219-11.226563-4.441407-23.667969-6.691407-36.976563-6.691407-5.226563 0-10.28125 2.144532-20.042969 8.5-6.007812 3.917969-13.035156 8.449219-20.878906 13.460938-6.707031 4.273438-15.792969 8.277344-27.015625 11.902344-10.949219 3.542968-22.066406 5.339844-33.042969 5.339844-10.96875 0-22.085937-1.796876-33.042968-5.339844-11.210938-3.621094-20.300782-7.625-26.996094-11.898438-7.769532-4.964844-14.800782-9.496094-20.898438-13.46875-9.753906-6.355468-14.808594-8.5-20.035156-8.5-13.3125 0-25.75 2.253906-36.972656 6.699219-11.257813 4.457031-21.003906 10.578125-28.96875 18.199219-7.609375 7.28125-14.390625 16.121094-20.15625 26.273437-5.558594 9.785157-10.058594 19.992188-13.371094 30.339844-3.199219 10.003906-5.875 20.945313-7.953125 32.523437-2.0625 11.476563-3.457031 22.363282-4.148437 32.363282-.679688 9.777344-1.023438 19.953125-1.023438 30.234375 0 26.726562 8.496094 48.363281 25.25 64.320312 16.546875 15.746094 38.4375 23.730469 65.066406 23.730469h246.53125c26.621094 0 48.511719-7.984375 65.0625-23.730469 16.757813-15.945312 25.253906-37.589843 25.253906-64.324219-.003906-10.316406-.351562-20.492187-1.035156-30.242187zm-44.90625 72.828125c-10.933594 10.40625-25.449218 15.464844-44.378906 15.464844h-246.527344c-18.933594 0-33.449218-5.058594-44.378906-15.460938-10.722656-10.207031-15.933594-24.140625-15.933594-42.585937 0-9.59375.316406-19.066407.949219-28.160157.617187-8.921874 1.878906-18.722656 3.75-29.136718 1.847656-10.285156 4.199219-19.9375 6.996094-28.675782 2.683593-8.378906 6.34375-16.675781 10.882812-24.667968 4.332031-7.617188 9.316407-14.152344 14.816407-19.417969 5.144531-4.925781 11.628906-8.957031 19.269531-11.980469 7.066406-2.796875 15.007812-4.328125 23.628906-4.558594 1.050781.558594 2.921875 1.625 5.953125 3.601563 6.167969 4.019531 13.277344 8.605469 21.136719 13.625 8.859375 5.648437 20.273437 10.75 33.910156 15.152344 13.941406 4.507812 28.160156 6.796875 42.273437 6.796875 14.113282 0 28.335938-2.289063 42.269532-6.792969 13.648437-4.410156 25.058594-9.507813 33.929687-15.164063 8.042969-5.140624 14.953125-9.59375 21.121094-13.617187 3.03125-1.972656 4.902344-3.042969 5.953125-3.601563 8.625.230469 16.566406 1.761719 23.636719 4.558594 7.636719 3.023438 14.121093 7.058594 19.265625 11.980469 5.5 5.261719 10.484375 11.796875 14.816406 19.421875 4.542969 7.988281 8.207031 16.289062 10.886719 24.660156 2.800781 8.75 5.15625 18.398438 7 28.675782 1.867187 10.433593 3.132812 20.238281 3.75 29.144531v.007812c.636719 9.058594.957031 18.527344.960937 28.148438-.003906 18.449219-5.214844 32.378906-15.9375 42.582031zm0 0"/>
  </symbol>
  <symbol id="star" viewBox="0 -10 511.98685 511" fill="currentColor">
    <path d="m114.59375 491.140625c-5.609375 0-11.179688-1.75-15.933594-5.1875-8.855468-6.417969-12.992187-17.449219-10.582031-28.09375l32.9375-145.089844-111.703125-97.960937c-8.210938-7.167969-11.347656-18.519532-7.976562-28.90625 3.371093-10.367188 12.542968-17.707032 23.402343-18.710938l147.796875-13.417968 58.433594-136.746094c4.308594-10.046875 14.121094-16.535156 25.023438-16.535156 10.902343 0 20.714843 6.488281 25.023437 16.511718l58.433594 136.769532 147.773437 13.417968c10.882813.980469 20.054688 8.34375 23.425782 18.710938 3.371093 10.367187.253906 21.738281-7.957032 28.90625l-111.703125 97.941406 32.9375 145.085938c2.414063 10.667968-1.726562 21.699218-10.578125 28.097656-8.832031 6.398437-20.609375 6.890625-29.910156 1.300781l-127.445312-76.160156-127.445313 76.203125c-4.308594 2.558594-9.109375 3.863281-13.953125 3.863281zm141.398438-112.875c4.84375 0 9.640624 1.300781 13.953124 3.859375l120.277344 71.9375-31.085937-136.941406c-2.21875-9.746094 1.089843-19.921875 8.621093-26.515625l105.472657-92.5-139.542969-12.671875c-10.046875-.917969-18.6875-7.234375-22.613281-16.492188l-55.082031-129.046875-55.148438 129.066407c-3.882812 9.195312-12.523438 15.511718-22.546875 16.429687l-139.5625 12.671875 105.46875 92.5c7.554687 6.613281 10.859375 16.769531 8.621094 26.539062l-31.0625 136.9375 120.277343-71.914062c4.308594-2.558594 9.109376-3.859375 13.953126-3.859375zm-84.585938-221.847656s0 .023437-.023438.042969zm169.128906-.0625.023438.042969c0-.023438 0-.023438-.023438-.042969zm0 0" />
  </symbol>
  <symbol id="dots" viewBox="0 0 426.667 426.667" fill="currentColor">
    <g>
      <g>
        <circle cx="42.667" cy="213.333" r="42.667"/>
      </g>
    </g>
    <g>
      <g>
        <circle cx="213.333" cy="213.333" r="42.667"/>
      </g>
    </g>
    <g>
      <g>
        <circle cx="384" cy="213.333" r="42.667"/>
      </g>
    </g>
  </symbol>
</svg>
